<?xml version="1.0" encoding="UTF-8"?>
<svg xmlns="http://www.w3.org/2000/svg" xmlns:xlink="http://www.w3.org/1999/xlink" width="256px" height="256px" viewBox="0 0 256 256" version="1.1">
<defs>
<filter id="alpha" filterUnits="objectBoundingBox" x="0%" y="0%" width="100%" height="100%">
  <feColorMatrix type="matrix" in="SourceGraphic" values="0 0 0 0 1 0 0 0 0 1 0 0 0 0 1 0 0 0 1 0"/>
</filter>
<mask id="mask0">
  <g filter="url(#alpha)">
<rect x="0" y="0" width="256" height="256" style="fill:rgb(0%,0%,0%);fill-opacity:0.0588235;stroke:none;"/>
  </g>
</mask>
<clipPath id="clip1">
  <rect x="0" y="0" width="256" height="256"/>
</clipPath>
<g id="surface5" clip-path="url(#clip1)">
<path style=" stroke:none;fill-rule:evenodd;fill:rgb(0%,0%,0%);fill-opacity:1;" d="M 92.125 21.375 C 122.375 21.292969 152.625 21.417969 182.875 21.75 C 192.535156 21.882812 201.703125 24.046875 210.375 28.25 C 224.953125 36.679688 233.410156 49.304688 235.75 66.125 C 236.097656 68.613281 236.347656 71.113281 236.5 73.625 C 236.78125 92.539062 236.90625 111.457031 236.875 130.375 C 236.832031 147.375 236.792969 164.375 236.75 181.375 C 236.894531 191.042969 235.226562 200.378906 231.75 209.375 C 224.109375 225.425781 211.484375 234.96875 193.875 238 C 190.808594 238.480469 187.722656 238.816406 184.625 239 C 165.710938 239.28125 146.792969 239.40625 127.875 239.375 C 110.957031 239.332031 94.042969 239.292969 77.125 239.25 C 67.652344 239.394531 58.484375 237.808594 49.625 234.5 C 32.289062 226.476562 22.414062 212.933594 20 193.875 C 19.644531 190.882812 19.394531 187.882812 19.25 184.875 C 18.777344 148.542969 18.777344 112.207031 19.25 75.875 C 19.242188 64.65625 22.074219 54.242188 27.75 44.625 C 37.082031 31.226562 49.957031 23.765625 66.375 22.25 C 68.621094 22.03125 70.871094 21.863281 73.125 21.75 C 79.5 21.707031 85.835938 21.582031 92.125 21.375 Z M 92.125 21.375 "/>
</g>
</defs>
<g id="surface1">
<use xlink:href="#surface5" mask="url(#mask0)"/>
<path style=" stroke:none;fill-rule:evenodd;fill:rgb(81.568627%,90.196078%,92.941176%);fill-opacity:1;" d="M 203.625 29.125 C 153.207031 29.457031 102.792969 29.457031 52.375 29.125 C 58.03125 26.800781 63.949219 25.507812 70.125 25.25 C 89.414062 24.964844 108.707031 24.839844 128 24.875 C 147.128906 24.839844 166.253906 24.964844 185.375 25.25 C 191.726562 25.445312 197.808594 26.734375 203.625 29.125 Z M 203.625 29.125 "/>
<path style=" stroke:none;fill-rule:evenodd;fill:rgb(80.784314%,89.019608%,91.372549%);fill-opacity:1;" d="M 52.375 29.125 C 102.792969 29.457031 153.207031 29.457031 203.625 29.125 C 211.789062 32.539062 218.289062 37.957031 223.125 45.375 C 220.835938 45.625 218.503906 45.707031 216.125 45.625 C 207.589844 36.035156 196.839844 31.246094 183.875 31.25 C 181.207031 31.167969 178.542969 31.082031 175.875 31 C 142.207031 30.832031 108.542969 30.832031 74.875 31 C 65.761719 30.679688 57.261719 32.761719 49.375 37.25 C 45.78125 39.550781 42.617188 42.339844 39.875 45.625 C 37.496094 45.707031 35.164062 45.625 32.875 45.375 C 36.78125 39.34375 41.863281 34.550781 48.125 31 C 49.488281 30.234375 50.90625 29.609375 52.375 29.125 Z M 52.375 29.125 "/>
<path style=" stroke:none;fill-rule:evenodd;fill:rgb(1.176471%,0%,0%);fill-opacity:1;" d="M 216.125 45.625 C 221.183594 52.335938 223.933594 59.917969 224.375 68.375 C 224.683594 73.535156 224.851562 78.699219 224.875 83.875 C 224.875 87.707031 224.875 91.542969 224.875 95.375 C 224.875 98.875 224.875 102.375 224.875 105.875 C 224.875 111.292969 224.875 116.707031 224.875 122.125 C 224.875 126.707031 224.875 131.292969 224.875 135.875 C 224.875 141.625 224.875 147.375 224.875 153.125 C 224.875 159.792969 224.875 166.457031 224.875 173.125 C 224.875 174.875 224.875 176.625 224.875 178.375 C 224.769531 183.964844 224.226562 189.546875 223.25 195.125 C 222.121094 199.796875 220.246094 204.132812 217.625 208.125 C 210.574219 217.695312 201.074219 223.070312 189.125 224.25 C 186.539062 224.386719 183.957031 224.554688 181.375 224.75 C 145.792969 224.917969 110.207031 224.917969 74.625 224.75 C 70.183594 224.582031 65.765625 224.164062 61.375 223.5 C 58.792969 222.832031 56.292969 221.957031 53.875 220.875 C 42.050781 215.21875 34.800781 205.96875 32.125 193.125 C 31.660156 189.644531 31.371094 186.144531 31.25 182.625 C 31.207031 173.832031 31.082031 165.082031 30.875 156.375 C 30.875 153.375 30.875 150.375 30.875 147.375 C 30.875 140.707031 30.875 134.042969 30.875 127.375 C 30.875 122.875 30.875 118.375 30.875 113.875 C 30.875 109.207031 30.875 104.542969 30.875 99.875 C 30.875 95.707031 30.875 91.542969 30.875 87.375 C 31.027344 81.375 31.195312 75.375 31.375 69.375 C 31.738281 60.539062 34.570312 52.621094 39.875 45.625 C 42.617188 42.339844 45.78125 39.550781 49.375 37.25 C 57.261719 32.761719 65.761719 30.679688 74.875 31 C 108.542969 30.832031 142.207031 30.832031 175.875 31 C 178.542969 31.082031 181.207031 31.167969 183.875 31.25 C 196.839844 31.246094 207.589844 36.035156 216.125 45.625 Z M 216.125 45.625 "/>
<path style=" stroke:none;fill-rule:evenodd;fill:rgb(14.901961%,14.901961%,14.901961%);fill-opacity:1;" d="M 74.375 45.375 C 110.792969 45.257812 147.210938 45.382812 183.625 45.75 C 199.480469 46.273438 208.273438 54.398438 210 70.125 C 210.40625 106.457031 210.488281 142.789062 210.25 179.125 C 210.679688 200.445312 200.21875 210.820312 178.875 210.25 C 144.042969 210.417969 109.207031 210.417969 74.375 210.25 C 69.757812 210.175781 65.257812 209.425781 60.875 208 C 51.636719 203.910156 46.675781 196.785156 46 186.625 C 45.777344 184.128906 45.609375 181.628906 45.5 179.125 C 45.332031 144.625 45.332031 110.125 45.5 75.625 C 45.234375 56.015625 54.859375 45.933594 74.375 45.375 Z M 74.375 45.375 "/>
<path style=" stroke:none;fill-rule:evenodd;fill:rgb(76.862745%,84.313725%,86.666667%);fill-opacity:1;" d="M 32.875 45.375 C 35.164062 45.625 37.496094 45.707031 39.875 45.625 C 34.570312 52.621094 31.738281 60.539062 31.375 69.375 C 29.457031 69.375 27.542969 69.375 25.625 69.375 C 25.625 68.707031 25.625 68.042969 25.625 67.375 C 26.054688 59.34375 28.46875 52.007812 32.875 45.375 Z M 32.875 45.375 "/>
<path style=" stroke:none;fill-rule:evenodd;fill:rgb(76.862745%,84.313725%,86.666667%);fill-opacity:1;" d="M 223.125 45.375 C 227.59375 52.445312 230.007812 60.195312 230.375 68.625 C 229.460938 68.792969 228.503906 68.875 227.5 68.875 C 226.394531 68.859375 225.351562 68.691406 224.375 68.375 C 223.933594 59.917969 221.183594 52.335938 216.125 45.625 C 218.503906 45.707031 220.835938 45.625 223.125 45.375 Z M 223.125 45.375 "/>
<path style=" stroke:none;fill-rule:evenodd;fill:rgb(98.823529%,98.823529%,98.823529%);fill-opacity:1;" d="M 62.875 61.125 C 71.117188 65.664062 79.367188 70.207031 87.625 74.75 C 87.957031 76.75 87.957031 78.75 87.625 80.75 C 79.398438 85.261719 71.1875 89.800781 63 94.375 C 62.796875 91.898438 62.835938 89.4375 63.125 87 C 69.210938 84.039062 75.210938 80.957031 81.125 77.75 C 75.210938 74.542969 69.210938 71.460938 63.125 68.5 C 62.878906 66.0625 62.796875 63.605469 62.875 61.125 Z M 62.875 61.125 "/>
<path style=" stroke:none;fill-rule:evenodd;fill:rgb(73.72549%,80.392157%,82.352941%);fill-opacity:1;" d="M 25.625 67.375 C 25.625 68.042969 25.625 68.707031 25.625 69.375 C 27.542969 69.375 29.457031 69.375 31.375 69.375 C 31.195312 75.375 31.027344 81.375 30.875 87.375 C 28.957031 87.375 27.042969 87.375 25.125 87.375 C 25.125 85.207031 25.125 83.042969 25.125 80.875 C 25.082031 77.375 25.125 73.875 25.25 70.375 C 25.292969 69.328125 25.417969 68.328125 25.625 67.375 Z M 25.625 67.375 "/>
<path style=" stroke:none;fill-rule:evenodd;fill:rgb(74.117647%,80.784314%,83.137255%);fill-opacity:1;" d="M 224.375 68.375 C 225.351562 68.691406 226.394531 68.859375 227.5 68.875 C 228.503906 68.875 229.460938 68.792969 230.375 68.625 C 230.621094 69.992188 230.707031 71.410156 230.625 72.875 C 230.625 76.542969 230.625 80.207031 230.625 83.875 C 228.707031 83.875 226.792969 83.875 224.875 83.875 C 224.851562 78.699219 224.683594 73.535156 224.375 68.375 Z M 224.375 68.375 "/>
<path style=" stroke:none;fill-rule:evenodd;fill:rgb(72.156863%,78.039216%,80%);fill-opacity:1;" d="M 230.625 72.875 C 230.875 80.332031 230.957031 87.832031 230.875 95.375 C 228.875 95.375 226.875 95.375 224.875 95.375 C 224.875 91.542969 224.875 87.707031 224.875 83.875 C 226.792969 83.875 228.707031 83.875 230.625 83.875 C 230.625 80.207031 230.625 76.542969 230.625 72.875 Z M 230.625 72.875 "/>
<path style=" stroke:none;fill-rule:evenodd;fill:rgb(71.372549%,77.254902%,78.823529%);fill-opacity:1;" d="M 25.125 80.875 C 25.125 83.042969 25.125 85.207031 25.125 87.375 C 27.042969 87.375 28.957031 87.375 30.875 87.375 C 30.875 91.542969 30.875 95.707031 30.875 99.875 C 28.875 99.875 26.875 99.875 24.875 99.875 C 24.792969 93.5 24.875 87.164062 25.125 80.875 Z M 25.125 80.875 "/>
<path style=" stroke:none;fill-rule:evenodd;fill:rgb(99.607843%,100%,99.607843%);fill-opacity:1;" d="M 96.375 98.875 C 105.957031 98.875 115.542969 98.875 125.125 98.875 C 125.125 100.792969 125.125 102.707031 125.125 104.625 C 115.542969 104.625 105.957031 104.625 96.375 104.625 C 96.375 102.707031 96.375 100.792969 96.375 98.875 Z M 96.375 98.875 "/>
<path style=" stroke:none;fill-rule:evenodd;fill:rgb(69.803922%,75.294118%,76.862745%);fill-opacity:1;" d="M 224.875 95.375 C 226.875 95.375 228.875 95.375 230.875 95.375 C 230.875 98.875 230.875 102.375 230.875 105.875 C 228.875 105.875 226.875 105.875 224.875 105.875 C 224.875 102.375 224.875 98.875 224.875 95.375 Z M 224.875 95.375 "/>
<path style=" stroke:none;fill-rule:evenodd;fill:rgb(68.235294%,73.333333%,74.901961%);fill-opacity:1;" d="M 24.875 99.875 C 26.875 99.875 28.875 99.875 30.875 99.875 C 30.875 104.542969 30.875 109.207031 30.875 113.875 C 28.875 113.875 26.875 113.875 24.875 113.875 C 24.875 109.207031 24.875 104.542969 24.875 99.875 Z M 24.875 99.875 "/>
<path style=" stroke:none;fill-rule:evenodd;fill:rgb(66.666667%,71.372549%,72.941176%);fill-opacity:1;" d="M 224.875 105.875 C 226.875 105.875 228.875 105.875 230.875 105.875 C 230.875 111.292969 230.875 116.707031 230.875 122.125 C 228.875 122.125 226.875 122.125 224.875 122.125 C 224.875 116.707031 224.875 111.292969 224.875 105.875 Z M 224.875 105.875 "/>
<path style=" stroke:none;fill-rule:evenodd;fill:rgb(65.098039%,69.411765%,70.980392%);fill-opacity:1;" d="M 24.875 113.875 C 26.875 113.875 28.875 113.875 30.875 113.875 C 30.875 118.375 30.875 122.875 30.875 127.375 C 28.875 127.375 26.875 127.375 24.875 127.375 C 24.875 122.875 24.875 118.375 24.875 113.875 Z M 24.875 113.875 "/>
<path style=" stroke:none;fill-rule:evenodd;fill:rgb(63.529412%,67.45098%,68.627451%);fill-opacity:1;" d="M 224.875 122.125 C 226.875 122.125 228.875 122.125 230.875 122.125 C 230.875 126.707031 230.875 131.292969 230.875 135.875 C 228.875 135.875 226.875 135.875 224.875 135.875 C 224.875 131.292969 224.875 126.707031 224.875 122.125 Z M 224.875 122.125 "/>
<path style=" stroke:none;fill-rule:evenodd;fill:rgb(61.568627%,65.098039%,65.882353%);fill-opacity:1;" d="M 24.875 127.375 C 26.875 127.375 28.875 127.375 30.875 127.375 C 30.875 134.042969 30.875 140.707031 30.875 147.375 C 28.957031 147.375 27.042969 147.375 25.125 147.375 C 25.207031 146.078125 25.121094 144.828125 24.875 143.625 C 24.875 138.207031 24.875 132.792969 24.875 127.375 Z M 24.875 127.375 "/>
<path style=" stroke:none;fill-rule:evenodd;fill:rgb(60%,63.137255%,63.921569%);fill-opacity:1;" d="M 224.875 135.875 C 226.875 135.875 228.875 135.875 230.875 135.875 C 230.875 141.625 230.875 147.375 230.875 153.125 C 228.875 153.125 226.875 153.125 224.875 153.125 C 224.875 147.375 224.875 141.625 224.875 135.875 Z M 224.875 135.875 "/>
<path style=" stroke:none;fill-rule:evenodd;fill:rgb(57.254902%,60%,60.392157%);fill-opacity:1;" d="M 24.875 143.625 C 25.121094 144.828125 25.207031 146.078125 25.125 147.375 C 27.042969 147.375 28.957031 147.375 30.875 147.375 C 30.875 150.375 30.875 153.375 30.875 156.375 C 30.875 159.457031 30.875 162.542969 30.875 165.625 C 28.957031 165.625 27.042969 165.625 25.125 165.625 C 25.207031 163.578125 25.121094 161.578125 24.875 159.625 C 24.875 154.292969 24.875 148.957031 24.875 143.625 Z M 24.875 143.625 "/>
<path style=" stroke:none;fill-rule:evenodd;fill:rgb(56.470588%,58.823529%,59.607843%);fill-opacity:1;" d="M 224.875 153.125 C 226.875 153.125 228.875 153.125 230.875 153.125 C 230.875 159.207031 230.875 165.292969 230.875 171.375 C 230.632812 171.902344 230.550781 172.484375 230.625 173.125 C 228.707031 173.125 226.792969 173.125 224.875 173.125 C 224.875 166.457031 224.875 159.792969 224.875 153.125 Z M 224.875 153.125 "/>
<path style=" stroke:none;fill-rule:evenodd;fill:rgb(53.72549%,55.686275%,56.078431%);fill-opacity:1;" d="M 24.875 159.625 C 25.121094 161.578125 25.207031 163.578125 25.125 165.625 C 27.042969 165.625 28.957031 165.625 30.875 165.625 C 30.875 169.207031 30.875 172.792969 30.875 176.375 C 28.957031 176.375 27.042969 176.375 25.125 176.375 C 24.878906 170.804688 24.796875 165.21875 24.875 159.625 Z M 24.875 159.625 "/>
<path style=" stroke:none;fill-rule:evenodd;fill:rgb(52.941176%,54.509804%,54.509804%);fill-opacity:1;" d="M 230.875 171.375 C 230.941406 175.546875 230.855469 179.714844 230.625 183.875 C 228.707031 183.875 226.792969 183.875 224.875 183.875 C 224.875 182.042969 224.875 180.207031 224.875 178.375 C 224.875 176.625 224.875 174.875 224.875 173.125 C 226.792969 173.125 228.707031 173.125 230.625 173.125 C 230.550781 172.484375 230.632812 171.902344 230.875 171.375 Z M 230.875 171.375 "/>
<path style=" stroke:none;fill-rule:evenodd;fill:rgb(50.196078%,51.372549%,51.764706%);fill-opacity:1;" d="M 30.875 156.375 C 31.082031 165.082031 31.207031 173.832031 31.25 182.625 C 31.371094 186.144531 31.660156 189.644531 32.125 193.125 C 32.125 193.457031 32.125 193.792969 32.125 194.125 C 30.207031 194.125 28.292969 194.125 26.375 194.125 C 25.339844 188.257812 24.925781 182.339844 25.125 176.375 C 27.042969 176.375 28.957031 176.375 30.875 176.375 C 30.875 172.792969 30.875 169.207031 30.875 165.625 C 30.875 162.542969 30.875 159.457031 30.875 156.375 Z M 30.875 156.375 "/>
<path style=" stroke:none;fill-rule:evenodd;fill:rgb(49.019608%,49.803922%,49.803922%);fill-opacity:1;" d="M 224.875 178.375 C 224.875 180.207031 224.875 182.042969 224.875 183.875 C 226.792969 183.875 228.707031 183.875 230.625 183.875 C 230.480469 191.15625 229.023438 198.15625 226.25 204.875 C 225.746094 206.054688 225.121094 207.140625 224.375 208.125 C 222.125 208.125 219.875 208.125 217.625 208.125 C 220.246094 204.132812 222.121094 199.796875 223.25 195.125 C 224.226562 189.546875 224.769531 183.964844 224.875 178.375 Z M 224.875 178.375 "/>
<path style=" stroke:none;fill-rule:evenodd;fill:rgb(47.45098%,47.843137%,47.45098%);fill-opacity:1;" d="M 32.125 193.125 C 34.800781 205.96875 42.050781 215.21875 53.875 220.875 C 50.253906 221.125 46.585938 221.207031 42.875 221.125 C 36.265625 216.214844 31.472656 209.882812 28.5 202.125 C 27.554688 199.515625 26.847656 196.851562 26.375 194.125 C 28.292969 194.125 30.207031 194.125 32.125 194.125 C 32.125 193.792969 32.125 193.457031 32.125 193.125 Z M 32.125 193.125 "/>
<path style=" stroke:none;fill-rule:evenodd;fill:rgb(45.882353%,45.490196%,45.098039%);fill-opacity:1;" d="M 217.625 208.125 C 219.875 208.125 222.125 208.125 224.375 208.125 C 217.34375 220.265625 206.84375 227.472656 192.875 229.75 C 190.46875 230.082031 188.050781 230.332031 185.625 230.5 C 166.128906 230.785156 146.628906 230.910156 127.125 230.875 C 107.707031 230.910156 88.289062 230.785156 68.875 230.5 C 61.339844 230.070312 54.257812 228.070312 47.625 224.5 C 45.9375 223.492188 44.355469 222.367188 42.875 221.125 C 46.585938 221.207031 50.253906 221.125 53.875 220.875 C 56.292969 221.957031 58.792969 222.832031 61.375 223.5 C 65.765625 224.164062 70.183594 224.582031 74.625 224.75 C 110.207031 224.917969 145.792969 224.917969 181.375 224.75 C 183.957031 224.554688 186.539062 224.386719 189.125 224.25 C 201.074219 223.070312 210.574219 217.695312 217.625 208.125 Z M 217.625 208.125 "/>
</g>
</svg>
