<?xml version="1.0" encoding="UTF-8"?>
<!DOCTYPE svg PUBLIC "-//W3C//DTD SVG 1.1//EN" "http://www.w3.org/Graphics/SVG/1.1/DTD/svg11.dtd">
<svg xmlns="http://www.w3.org/2000/svg" version="1.1" width="1024px" height="1024px" style="shape-rendering:geometricPrecision; text-rendering:geometricPrecision; image-rendering:optimizeQuality; fill-rule:evenodd; clip-rule:evenodd" xmlns:xlink="http://www.w3.org/1999/xlink">
<g><path style="opacity:0.059" fill="#000000" d="M 368.5,85.5 C 489.504,85.1736 610.504,85.6736 731.5,87C 770.148,87.5276 806.814,96.1943 841.5,113C 899.806,146.718 933.639,197.218 943,264.5C 944.396,274.459 945.396,284.459 946,294.5C 947.129,370.157 947.629,445.824 947.5,521.5C 947.333,589.5 947.167,657.5 947,725.5C 947.572,764.174 940.905,801.508 927,837.5C 896.43,901.702 845.93,939.868 775.5,952C 763.232,953.927 750.898,955.26 738.5,956C 662.842,957.127 587.176,957.627 511.5,957.5C 443.833,957.333 376.167,957.167 308.5,957C 270.603,957.573 233.936,951.24 198.5,938C 129.16,905.9 89.66,851.733 80,775.5C 78.579,763.535 77.579,751.535 77,739.5C 75.1085,594.165 75.1085,448.831 77,303.5C 76.9658,258.628 88.2991,216.961 111,178.5C 148.325,124.899 199.825,95.0657 265.5,89C 274.484,88.126 283.484,87.4593 292.5,87C 318.003,86.8322 343.337,86.3322 368.5,85.5 Z"/></g>
<g><path style="opacity:1" fill="#d0e6ed" d="M 814.5,116.5 C 612.833,117.833 411.167,117.833 209.5,116.5C 232.128,107.205 255.794,102.039 280.5,101C 357.656,99.8649 434.823,99.3649 512,99.5C 588.511,99.3617 665.011,99.8617 741.5,101C 766.902,101.779 791.235,106.945 814.5,116.5 Z"/></g>
<g><path style="opacity:1" fill="#cee3e9" d="M 209.5,116.5 C 411.167,117.833 612.833,117.833 814.5,116.5C 847.157,130.156 873.157,151.822 892.5,181.5C 883.348,182.494 874.015,182.827 864.5,182.5C 830.352,144.147 787.352,124.981 735.5,125C 724.833,124.667 714.167,124.333 703.5,124C 568.833,123.333 434.167,123.333 299.5,124C 263.048,122.714 229.048,131.047 197.5,149C 183.131,158.201 170.464,169.367 159.5,182.5C 149.985,182.827 140.652,182.494 131.5,181.5C 147.124,157.377 167.458,138.21 192.5,124C 197.953,120.938 203.62,118.438 209.5,116.5 Z"/></g>
<g><path style="opacity:1" fill="#030000" d="M 864.5,182.5 C 884.737,209.34 895.737,239.673 897.5,273.5C 898.74,294.135 899.407,314.801 899.5,335.5C 899.5,350.833 899.5,366.167 899.5,381.5C 899.5,395.5 899.5,409.5 899.5,423.5C 899.5,445.167 899.5,466.833 899.5,488.5C 899.5,506.833 899.5,525.167 899.5,543.5C 899.5,566.5 899.5,589.5 899.5,612.5C 899.5,639.167 899.5,665.833 899.5,692.5C 899.5,699.5 899.5,706.5 899.5,713.5C 899.072,735.857 896.905,758.19 893,780.5C 888.483,799.192 880.983,816.525 870.5,832.5C 842.297,870.782 804.297,892.282 756.5,897C 746.159,897.549 735.826,898.216 725.5,899C 583.167,899.667 440.833,899.667 298.5,899C 280.735,898.326 263.068,896.66 245.5,894C 235.175,891.333 225.175,887.833 215.5,883.5C 168.209,860.872 139.209,823.872 128.5,772.5C 126.647,758.579 125.48,744.579 125,730.5C 124.833,695.331 124.333,660.331 123.5,625.5C 123.5,613.5 123.5,601.5 123.5,589.5C 123.5,562.833 123.5,536.167 123.5,509.5C 123.5,491.5 123.5,473.5 123.5,455.5C 123.5,436.833 123.5,418.167 123.5,399.5C 123.5,382.833 123.5,366.167 123.5,349.5C 124.109,325.497 124.775,301.497 125.5,277.5C 126.947,242.15 138.28,210.483 159.5,182.5C 170.464,169.367 183.131,158.201 197.5,149C 229.048,131.047 263.048,122.714 299.5,124C 434.167,123.333 568.833,123.333 703.5,124C 714.167,124.333 724.833,124.667 735.5,125C 787.352,124.981 830.352,144.147 864.5,182.5 Z"/></g>
<g><path style="opacity:1" fill="#262626" d="M 297.5,181.5 C 443.177,181.03 588.844,181.53 734.5,183C 797.926,185.098 833.093,217.598 840,280.5C 841.624,425.825 841.958,571.159 841,716.5C 842.711,801.789 800.878,843.289 715.5,841C 576.167,841.667 436.833,841.667 297.5,841C 279.033,840.696 261.033,837.696 243.5,832C 206.543,815.636 186.71,787.136 184,746.5C 183.112,736.515 182.445,726.515 182,716.5C 181.333,578.5 181.333,440.5 182,302.5C 180.938,224.067 219.438,183.734 297.5,181.5 Z"/></g>
<g><path style="opacity:1" fill="#c4d7dd" d="M 131.5,181.5 C 140.652,182.494 149.985,182.827 159.5,182.5C 138.28,210.483 126.947,242.15 125.5,277.5C 117.833,277.5 110.167,277.5 102.5,277.5C 102.5,274.833 102.5,272.167 102.5,269.5C 104.211,237.368 113.878,208.035 131.5,181.5 Z"/></g>
<g><path style="opacity:1" fill="#c4d7dd" d="M 892.5,181.5 C 910.368,209.781 920.035,240.781 921.5,274.5C 917.849,275.165 914.015,275.499 910,275.5C 905.579,275.431 901.412,274.765 897.5,273.5C 895.737,239.673 884.737,209.34 864.5,182.5C 874.015,182.827 883.348,182.494 892.5,181.5 Z"/></g>
<g><path style="opacity:1" fill="#fcfcfc" d="M 251.5,244.5 C 284.473,262.654 317.473,280.821 350.5,299C 351.833,307 351.833,315 350.5,323C 317.586,341.04 284.753,359.206 252,377.5C 251.182,367.589 251.349,357.756 252.5,348C 276.841,336.164 300.841,323.831 324.5,311C 300.841,298.169 276.841,285.836 252.5,274C 251.514,264.25 251.181,254.416 251.5,244.5 Z"/></g>
<g><path style="opacity:1" fill="#bccdd2" d="M 102.5,269.5 C 102.5,272.167 102.5,274.833 102.5,277.5C 110.167,277.5 117.833,277.5 125.5,277.5C 124.775,301.497 124.109,325.497 123.5,349.5C 115.833,349.5 108.167,349.5 100.5,349.5C 100.5,340.833 100.5,332.167 100.5,323.5C 100.333,309.496 100.5,295.496 101,281.5C 101.176,277.312 101.676,273.312 102.5,269.5 Z"/></g>
<g><path style="opacity:1" fill="#bdced4" d="M 897.5,273.5 C 901.412,274.765 905.579,275.431 910,275.5C 914.015,275.499 917.849,275.165 921.5,274.5C 922.489,279.975 922.822,285.642 922.5,291.5C 922.5,306.167 922.5,320.833 922.5,335.5C 914.833,335.5 907.167,335.5 899.5,335.5C 899.407,314.801 898.74,294.135 897.5,273.5 Z"/></g>
<g><path style="opacity:1" fill="#b8c7cc" d="M 922.5,291.5 C 923.498,321.329 923.831,351.329 923.5,381.5C 915.5,381.5 907.5,381.5 899.5,381.5C 899.5,366.167 899.5,350.833 899.5,335.5C 907.167,335.5 914.833,335.5 922.5,335.5C 922.5,320.833 922.5,306.167 922.5,291.5 Z"/></g>
<g><path style="opacity:1" fill="#b6c5c9" d="M 100.5,323.5 C 100.5,332.167 100.5,340.833 100.5,349.5C 108.167,349.5 115.833,349.5 123.5,349.5C 123.5,366.167 123.5,382.833 123.5,399.5C 115.5,399.5 107.5,399.5 99.5,399.5C 99.1689,373.995 99.5023,348.661 100.5,323.5 Z"/></g>
<g><path style="opacity:1" fill="#fefffe" d="M 385.5,395.5 C 423.833,395.5 462.167,395.5 500.5,395.5C 500.5,403.167 500.5,410.833 500.5,418.5C 462.167,418.5 423.833,418.5 385.5,418.5C 385.5,410.833 385.5,403.167 385.5,395.5 Z"/></g>
<g><path style="opacity:1" fill="#b2c0c4" d="M 899.5,381.5 C 907.5,381.5 915.5,381.5 923.5,381.5C 923.5,395.5 923.5,409.5 923.5,423.5C 915.5,423.5 907.5,423.5 899.5,423.5C 899.5,409.5 899.5,395.5 899.5,381.5 Z"/></g>
<g><path style="opacity:1" fill="#aebbbf" d="M 99.5,399.5 C 107.5,399.5 115.5,399.5 123.5,399.5C 123.5,418.167 123.5,436.833 123.5,455.5C 115.5,455.5 107.5,455.5 99.5,455.5C 99.5,436.833 99.5,418.167 99.5,399.5 Z"/></g>
<g><path style="opacity:1" fill="#aab6ba" d="M 899.5,423.5 C 907.5,423.5 915.5,423.5 923.5,423.5C 923.5,445.167 923.5,466.833 923.5,488.5C 915.5,488.5 907.5,488.5 899.5,488.5C 899.5,466.833 899.5,445.167 899.5,423.5 Z"/></g>
<g><path style="opacity:1" fill="#a6b1b5" d="M 99.5,455.5 C 107.5,455.5 115.5,455.5 123.5,455.5C 123.5,473.5 123.5,491.5 123.5,509.5C 115.5,509.5 107.5,509.5 99.5,509.5C 99.5,491.5 99.5,473.5 99.5,455.5 Z"/></g>
<g><path style="opacity:1" fill="#a2acaf" d="M 899.5,488.5 C 907.5,488.5 915.5,488.5 923.5,488.5C 923.5,506.833 923.5,525.167 923.5,543.5C 915.5,543.5 907.5,543.5 899.5,543.5C 899.5,525.167 899.5,506.833 899.5,488.5 Z"/></g>
<g><path style="opacity:1" fill="#9da6a8" d="M 99.5,509.5 C 107.5,509.5 115.5,509.5 123.5,509.5C 123.5,536.167 123.5,562.833 123.5,589.5C 115.833,589.5 108.167,589.5 100.5,589.5C 100.821,584.305 100.487,579.305 99.5,574.5C 99.5,552.833 99.5,531.167 99.5,509.5 Z"/></g>
<g><path style="opacity:1" fill="#99a1a3" d="M 899.5,543.5 C 907.5,543.5 915.5,543.5 923.5,543.5C 923.5,566.5 923.5,589.5 923.5,612.5C 915.5,612.5 907.5,612.5 899.5,612.5C 899.5,589.5 899.5,566.5 899.5,543.5 Z"/></g>
<g><path style="opacity:1" fill="#92999a" d="M 99.5,574.5 C 100.487,579.305 100.821,584.305 100.5,589.5C 108.167,589.5 115.833,589.5 123.5,589.5C 123.5,601.5 123.5,613.5 123.5,625.5C 123.5,637.833 123.5,650.167 123.5,662.5C 115.833,662.5 108.167,662.5 100.5,662.5C 100.826,654.316 100.492,646.316 99.5,638.5C 99.5,617.167 99.5,595.833 99.5,574.5 Z"/></g>
<g><path style="opacity:1" fill="#909698" d="M 899.5,612.5 C 907.5,612.5 915.5,612.5 923.5,612.5C 923.5,636.833 923.5,661.167 923.5,685.5C 922.532,687.607 922.198,689.941 922.5,692.5C 914.833,692.5 907.167,692.5 899.5,692.5C 899.5,665.833 899.5,639.167 899.5,612.5 Z"/></g>
<g><path style="opacity:1" fill="#898e8f" d="M 99.5,638.5 C 100.492,646.316 100.826,654.316 100.5,662.5C 108.167,662.5 115.833,662.5 123.5,662.5C 123.5,676.833 123.5,691.167 123.5,705.5C 115.833,705.5 108.167,705.5 100.5,705.5C 99.5212,683.212 99.1879,660.879 99.5,638.5 Z"/></g>
<g><path style="opacity:1" fill="#878b8b" d="M 923.5,685.5 C 923.759,702.191 923.425,718.857 922.5,735.5C 914.833,735.5 907.167,735.5 899.5,735.5C 899.5,728.167 899.5,720.833 899.5,713.5C 899.5,706.5 899.5,699.5 899.5,692.5C 907.167,692.5 914.833,692.5 922.5,692.5C 922.198,689.941 922.532,687.607 923.5,685.5 Z"/></g>
<g><path style="opacity:1" fill="#808384" d="M 123.5,625.5 C 124.333,660.331 124.833,695.331 125,730.5C 125.48,744.579 126.647,758.579 128.5,772.5C 128.5,773.833 128.5,775.167 128.5,776.5C 120.833,776.5 113.167,776.5 105.5,776.5C 101.367,753.033 99.7005,729.366 100.5,705.5C 108.167,705.5 115.833,705.5 123.5,705.5C 123.5,691.167 123.5,676.833 123.5,662.5C 123.5,650.167 123.5,637.833 123.5,625.5 Z"/></g>
<g><path style="opacity:1" fill="#7d7f7f" d="M 899.5,713.5 C 899.5,720.833 899.5,728.167 899.5,735.5C 907.167,735.5 914.833,735.5 922.5,735.5C 921.925,764.623 916.092,792.623 905,819.5C 902.978,824.223 900.478,828.557 897.5,832.5C 888.5,832.5 879.5,832.5 870.5,832.5C 880.983,816.525 888.483,799.192 893,780.5C 896.905,758.19 899.072,735.857 899.5,713.5 Z"/></g>
<g><path style="opacity:1" fill="#797a79" d="M 128.5,772.5 C 139.209,823.872 168.209,860.872 215.5,883.5C 201.01,884.496 186.343,884.829 171.5,884.5C 145.056,864.861 125.889,839.528 114,808.5C 110.226,798.068 107.392,787.402 105.5,776.5C 113.167,776.5 120.833,776.5 128.5,776.5C 128.5,775.167 128.5,773.833 128.5,772.5 Z"/></g>
<g><path style="opacity:1" fill="#757473" d="M 870.5,832.5 C 879.5,832.5 888.5,832.5 897.5,832.5C 869.373,881.064 827.373,909.897 771.5,919C 761.868,920.33 752.202,921.33 742.5,922C 664.511,923.137 586.511,923.637 508.5,923.5C 430.822,923.639 353.155,923.139 275.5,922C 245.362,920.286 217.029,912.286 190.5,898C 183.748,893.969 177.415,889.469 171.5,884.5C 186.343,884.829 201.01,884.496 215.5,883.5C 225.175,887.833 235.175,891.333 245.5,894C 263.068,896.66 280.735,898.326 298.5,899C 440.833,899.667 583.167,899.667 725.5,899C 735.826,898.216 746.159,897.549 756.5,897C 804.297,892.282 842.297,870.782 870.5,832.5 Z"/></g>
</svg>
